<?xml version="1.0" encoding="UTF-8"?>
<svg width="21px" height="22px" viewBox="0 0 21 22" version="1.1" xmlns="http://www.w3.org/2000/svg" xmlns:xlink="http://www.w3.org/1999/xlink">
    <!-- Generator: Sketch 49.1 (51147) - http://www.bohemiancoding.com/sketch -->
    <title>Molecule 2</title>
    <desc>Created with Sketch.</desc>
    <defs></defs>
    <g id="Page-1" stroke="none" stroke-width="1" fill="none" fill-rule="evenodd">
        <g id="Molecule-2" fill="#BC8557" fill-rule="nonzero">
            <path d="M21,7.18971729 C21,5.65816405 19.7257879,4.41254614 18.1595741,4.41254614 C17.3355521,4.41254614 16.5948526,4.75926704 16.0755173,5.30828231 L13.1908185,3.58488981 C13.2704102,3.32886099 13.3141855,3.05824363 13.3141855,2.77765743 C13.3141855,1.2461042 12.0399735,0 10.4732622,0 C8.90655091,0 7.63184139,1.2461042 7.63184139,2.77765743 C7.63184139,3.01374859 7.66492165,3.24108662 7.72163068,3.45967154 L4.89388969,5.27521496 C4.37654416,4.74516478 3.64877829,4.41278928 2.84191825,4.41278928 C1.27470953,4.41278928 0,5.6584072 0,7.18996043 C0,8.42342123 0.827255392,9.4703919 1.96790278,9.83194448 L1.96790278,12.5193961 C0.827255392,12.8802193 2.2091112e-16,13.9269468 2.2091112e-16,15.1601645 C2.2091112e-16,16.6917177 1.27470953,17.9378219 2.84191825,17.9378219 C3.62440336,17.9378219 4.33376367,17.6268429 4.8481245,17.1242678 L7.68954531,18.6623859 C7.65173929,18.8432837 7.63184139,19.0305033 7.63184139,19.2223426 C7.63184139,20.7538958 8.90655091,22 10.4732622,22 C12.0399735,22 13.3141855,20.7538958 13.3141855,19.2223426 C13.3141855,19.0737826 13.2985159,18.9293561 13.2758821,18.787361 L16.1337187,17.1048164 C16.6495718,17.6180898 17.3666426,17.9378219 18.1595741,17.9378219 C19.7257879,17.9378219 21,16.6917177 21,15.1601645 C21,13.9070091 20.1458824,12.8459362 18.9771293,12.5016467 L18.9771293,9.84896443 C20.1458824,9.50443182 21,8.44311576 21,7.18971729 Z M18.1595741,5.63457925 C19.0363255,5.63457925 19.7501629,6.33215446 19.7501629,7.18971729 C19.7501629,8.04728012 19.0365742,8.74558476 18.1595741,8.74558476 C17.2818278,8.74558476 16.5682392,8.04728012 16.5682392,7.18971729 C16.5682392,6.91715479 16.6406178,6.66112597 16.7674669,6.43792135 C16.7674669,6.43792135 16.7674669,6.43792135 16.7674669,6.43743507 C16.7679644,6.43743507 16.7679644,6.43743507 16.7679644,6.43694879 C17.039322,5.9591742 17.5608959,5.63457925 18.1595741,5.63457925 Z M10.4732622,1.22178997 C11.3505111,1.22178997 12.0640997,1.91985146 12.0640997,2.77741429 C12.0640997,3.63497712 11.3505111,4.33303862 10.4732622,4.33303862 C9.59551587,4.33303862 8.88192725,3.63497712 8.88192725,2.77741429 C8.88192725,1.91985146 9.59551587,1.22178997 10.4732622,1.22178997 Z M1.25008587,7.18971729 C1.25008587,6.33215446 1.96417193,5.63457925 2.84191825,5.63457925 C3.3856285,5.63457925 3.86541673,5.90300833 4.15269273,6.31075794 C4.1691085,6.35549612 4.18900641,6.39901859 4.21736092,6.44083906 C4.22954839,6.45931788 4.24646161,6.47317699 4.26063886,6.49019695 C4.36957989,6.70051502 4.43250702,6.93806503 4.43250702,7.18971729 C4.43250702,8.04728012 3.71891841,8.74558476 2.84191825,8.74558476 C1.96417193,8.74558476 1.25008587,8.04728012 1.25008587,7.18971729 Z M2.84216698,16.7155456 C1.96442065,16.7155456 1.25033459,16.0174841 1.25033459,15.1599213 C1.25033459,14.3028448 1.96442065,13.6050264 2.84216698,13.6050264 C3.71891841,13.6050264 4.43275574,14.3026016 4.43275574,15.1599213 C4.43250702,16.0174841 3.71891841,16.7155456 2.84216698,16.7155456 Z M10.4732622,20.7777237 C9.59551587,20.7777237 8.88192725,20.0796623 8.88192725,19.2220994 C8.88192725,18.3645366 9.59551587,17.6669614 10.4732622,17.6669614 C11.1612322,17.6669614 11.7464794,18.0968369 11.9680923,18.6947238 C11.9695846,18.6981278 11.9705795,18.7012887 11.9720719,18.7046926 C12.0307707,18.8671117 12.0643484,19.0404721 12.0643484,19.2223426 C12.0643484,20.0796623 11.3507598,20.7777237 10.4732622,20.7777237 Z M12.804053,17.6382706 C12.2901896,16.9183263 11.4375644,16.4449283 10.4732622,16.4449283 C9.55024813,16.4449283 8.73070318,16.8794235 8.21136786,17.5475785 L5.51520176,16.0887248 C5.62165555,15.7976835 5.68234416,15.4859751 5.68234416,15.1599213 C5.68234416,13.7538295 4.60636496,12.5913662 3.21798865,12.4102252 L3.21798865,9.93989965 C4.60636496,9.75948807 5.68234416,8.59653854 5.68234416,7.18971729 C5.68234416,6.88676201 5.63085833,6.59620698 5.5385818,6.3231582 L8.29245182,4.5555138 C8.81427438,5.16580093 9.59775438,5.55507173 10.4732622,5.55507173 C11.3039997,5.55507173 12.0496737,5.20275856 12.5700039,4.64523331 L15.446246,6.36376296 C15.3626748,6.62489777 15.3179046,6.90232311 15.3179046,7.18947415 C15.3179046,8.5773303 16.3652805,9.72690701 17.7270434,9.93163281 L17.7270434,12.4187352 C16.3652805,12.6229747 15.3179046,13.7725514 15.3179046,15.1596782 C15.3179046,15.4769788 15.375111,15.7809067 15.4758442,16.0653832 L12.804053,17.6382706 Z M19.7499141,15.1599213 C19.7499141,16.0174841 19.0363255,16.7155456 18.1593254,16.7155456 C17.281579,16.7155456 16.5679904,16.0174841 16.5679904,15.1599213 C16.5679904,14.3028448 17.281579,13.6050264 18.1593254,13.6050264 C19.0363255,13.6050264 19.7499141,14.3026016 19.7499141,15.1599213 Z" id="Shape"></path>
        </g>
    </g>
</svg>